# xmcd
#
# Track frame offsets:
#	150
#	15670
#	29057
#	45777
#	63605
#	83420
#	99932
#	118882
#	138877
#	157120
#	170430
#	186052
#	200690
#	230250
#	258242
#
# Disc length: 3725 seconds
#
# Revision: 1
# Processed by: cddbd v1.5.2PL0 Copyright (c) Steve Scherf et al.
# Submitted via: EZCDAudioConverter 8.3.2.1
#
DISCID=bf0e8b0f
DTITLE=Tavares - Anthology [CD1]
DYEAR=2004
DGENRE=R&B, Funk, Soul
TTITLE0=Check It Out
TTITLE1=The Judgement Day
TTITLE2=That's The Sound That Lonely Makes
TTITLE3=Strangers In Dark Corners
TTITLE4=Too Late
TTITLE5=She's Gone
TTITLE6=Remember What I Told You To Forget
TTITLE7=Hard Core Poetry
TTITLE8=It Only Takes A Minute
TTITLE9=Free Ride
TTITLE10=The Love I Never Had
TTITLE11=In The City
TTITLE12=Heaven Must Be Missing An Angel
TTITLE13=Don't Take Away The Music
TTITLE14=To The Other Man
EXTD=
EXTT0=
EXTT1=
EXTT2=
EXTT3=
EXTT4=
EXTT5=
EXTT6=
EXTT7=
EXTT8=
EXTT9=
EXTT10=
EXTT11=
EXTT12=
EXTT13=
EXTT14=
PLAYORDER=
